<mxfile host="app.diagrams.net" modified="2021-10-18T09:18:25.195Z" agent="5.0 (Windows NT 10.0; Win64; x64) AppleWebKit/537.36 (KHTML, like Gecko) Chrome/95.0.4638.50 Safari/537.36" etag="SwS-4W1yBqQLFdxIbWgQ" version="15.5.4" type="github">
  <diagram id="0NARUyMhth6DVro84zLS" name="Page-1">
    <mxGraphModel dx="1422" dy="704" grid="1" gridSize="10" guides="1" tooltips="1" connect="1" arrows="1" fold="1" page="1" pageScale="1" pageWidth="827" pageHeight="1169" math="0" shadow="0">
      <root>
        <mxCell id="0" />
        <mxCell id="1" parent="0" />
        <mxCell id="0XLo5o7JqgH2-rpiOE0s-1" value="&lt;font style=&quot;font-size: 18px&quot;&gt;路灯&lt;/font&gt;" style="whiteSpace=wrap;html=1;aspect=fixed;fillColor=#dae8fc;strokeColor=#6c8ebf;" vertex="1" parent="1">
          <mxGeometry x="260" y="290" width="80" height="80" as="geometry" />
        </mxCell>
        <mxCell id="0XLo5o7JqgH2-rpiOE0s-2" value="路灯" style="whiteSpace=wrap;html=1;aspect=fixed;fontSize=18;fillColor=#dae8fc;strokeColor=#6c8ebf;" vertex="1" parent="1">
          <mxGeometry x="472" y="290" width="80" height="80" as="geometry" />
        </mxCell>
        <mxCell id="0XLo5o7JqgH2-rpiOE0s-4" value="通知" style="endArrow=classic;startArrow=classic;html=1;rounded=0;fontSize=18;entryX=0;entryY=0.5;entryDx=0;entryDy=0;" edge="1" parent="1" source="0XLo5o7JqgH2-rpiOE0s-1" target="0XLo5o7JqgH2-rpiOE0s-2">
          <mxGeometry width="50" height="50" relative="1" as="geometry">
            <mxPoint x="414" y="370" as="sourcePoint" />
            <mxPoint x="464" y="320" as="targetPoint" />
          </mxGeometry>
        </mxCell>
        <mxCell id="0XLo5o7JqgH2-rpiOE0s-6" value="路灯" style="whiteSpace=wrap;html=1;aspect=fixed;fontSize=18;fillColor=#dae8fc;strokeColor=#6c8ebf;" vertex="1" parent="1">
          <mxGeometry x="701" y="290" width="80" height="80" as="geometry" />
        </mxCell>
        <mxCell id="0XLo5o7JqgH2-rpiOE0s-7" value="通知" style="endArrow=classic;startArrow=classic;html=1;rounded=0;fontSize=18;entryX=0;entryY=0.5;entryDx=0;entryDy=0;exitX=1;exitY=0.5;exitDx=0;exitDy=0;" edge="1" parent="1" source="0XLo5o7JqgH2-rpiOE0s-2" target="0XLo5o7JqgH2-rpiOE0s-6">
          <mxGeometry width="50" height="50" relative="1" as="geometry">
            <mxPoint x="550" y="355" as="sourcePoint" />
            <mxPoint x="600" y="305" as="targetPoint" />
          </mxGeometry>
        </mxCell>
        <mxCell id="0XLo5o7JqgH2-rpiOE0s-9" value="行人" style="shape=umlActor;verticalLabelPosition=bottom;verticalAlign=top;html=1;outlineConnect=0;fontSize=18;" vertex="1" parent="1">
          <mxGeometry x="280" y="136" width="30" height="60" as="geometry" />
        </mxCell>
        <mxCell id="0XLo5o7JqgH2-rpiOE0s-14" value="" style="shape=image;html=1;verticalAlign=top;verticalLabelPosition=bottom;labelBackgroundColor=#ffffff;imageAspect=0;aspect=fixed;image=https://cdn3.iconfinder.com/data/icons/google-material-design-icons/48/ic_directions_car_48px-128.png;fontSize=18;" vertex="1" parent="1">
          <mxGeometry x="448" y="585" width="128" height="128" as="geometry" />
        </mxCell>
        <mxCell id="0XLo5o7JqgH2-rpiOE0s-15" value="" style="rounded=0;whiteSpace=wrap;html=1;fontSize=18;" vertex="1" parent="1">
          <mxGeometry x="10" y="210" width="130" height="290" as="geometry" />
        </mxCell>
        <mxCell id="0XLo5o7JqgH2-rpiOE0s-16" value="" style="shape=image;html=1;verticalAlign=top;verticalLabelPosition=bottom;labelBackgroundColor=#ffffff;imageAspect=0;aspect=fixed;image=https://cdn3.iconfinder.com/data/icons/google-material-design-icons/48/ic_directions_car_48px-128.png;fontSize=18;" vertex="1" parent="1">
          <mxGeometry x="10" y="370" width="128" height="128" as="geometry" />
        </mxCell>
        <mxCell id="0XLo5o7JqgH2-rpiOE0s-17" value="行人" style="shape=umlActor;verticalLabelPosition=bottom;verticalAlign=top;html=1;outlineConnect=0;fontSize=18;" vertex="1" parent="1">
          <mxGeometry x="50" y="230" width="30" height="60" as="geometry" />
        </mxCell>
        <mxCell id="0XLo5o7JqgH2-rpiOE0s-18" value="" style="shape=image;html=1;verticalAlign=top;verticalLabelPosition=bottom;labelBackgroundColor=#ffffff;imageAspect=0;aspect=fixed;image=https://cdn3.iconfinder.com/data/icons/google-material-design-icons/48/ic_directions_car_48px-128.png;fontSize=18;" vertex="1" parent="1">
          <mxGeometry x="900" y="266" width="128" height="128" as="geometry" />
        </mxCell>
        <mxCell id="0XLo5o7JqgH2-rpiOE0s-19" value="通过WIFI 接收路灯&lt;br&gt;发送的信息" style="ellipse;shape=cloud;whiteSpace=wrap;html=1;fontSize=18;" vertex="1" parent="1">
          <mxGeometry x="830" y="196" width="238" height="94" as="geometry" />
        </mxCell>
        <mxCell id="0XLo5o7JqgH2-rpiOE0s-23" value="" style="endArrow=classic;html=1;rounded=0;fontSize=18;exitX=0.5;exitY=1;exitDx=0;exitDy=0;entryX=0.513;entryY=0.096;entryDx=0;entryDy=0;entryPerimeter=0;" edge="1" parent="1" source="0XLo5o7JqgH2-rpiOE0s-2" target="0XLo5o7JqgH2-rpiOE0s-33">
          <mxGeometry width="50" height="50" relative="1" as="geometry">
            <mxPoint x="508" y="370" as="sourcePoint" />
            <mxPoint x="508" y="480" as="targetPoint" />
          </mxGeometry>
        </mxCell>
        <mxCell id="0XLo5o7JqgH2-rpiOE0s-24" value="摄像头：探测到左侧车辆" style="edgeLabel;html=1;align=center;verticalAlign=middle;resizable=0;points=[];fontSize=18;" vertex="1" connectable="0" parent="0XLo5o7JqgH2-rpiOE0s-23">
          <mxGeometry x="-0.2857" y="3" relative="1" as="geometry">
            <mxPoint x="-4" y="21" as="offset" />
          </mxGeometry>
        </mxCell>
        <mxCell id="0XLo5o7JqgH2-rpiOE0s-28" value="摄像头" style="endArrow=classic;html=1;rounded=0;fontSize=18;exitX=0;exitY=0.6;exitDx=0;exitDy=0;exitPerimeter=0;" edge="1" parent="1" source="0XLo5o7JqgH2-rpiOE0s-1" target="0XLo5o7JqgH2-rpiOE0s-15">
          <mxGeometry width="50" height="50" relative="1" as="geometry">
            <mxPoint x="700" y="370" as="sourcePoint" />
            <mxPoint x="750" y="320" as="targetPoint" />
          </mxGeometry>
        </mxCell>
        <mxCell id="0XLo5o7JqgH2-rpiOE0s-29" value="摄像头" style="endArrow=classic;html=1;rounded=0;fontSize=18;" edge="1" parent="1">
          <mxGeometry width="50" height="50" relative="1" as="geometry">
            <mxPoint x="296" y="280" as="sourcePoint" />
            <mxPoint x="296.2096774193549" y="223" as="targetPoint" />
          </mxGeometry>
        </mxCell>
        <mxCell id="0XLo5o7JqgH2-rpiOE0s-32" value="通过WIFI 接收路灯&lt;br&gt;发送的信息" style="ellipse;shape=cloud;whiteSpace=wrap;html=1;fontSize=18;" vertex="1" parent="1">
          <mxGeometry x="170" y="42" width="238" height="94" as="geometry" />
        </mxCell>
        <mxCell id="0XLo5o7JqgH2-rpiOE0s-33" value="通过WIFI 接收路灯&lt;br&gt;发送的信息" style="ellipse;shape=cloud;whiteSpace=wrap;html=1;fontSize=18;" vertex="1" parent="1">
          <mxGeometry x="380" y="510" width="238" height="94" as="geometry" />
        </mxCell>
        <mxCell id="0XLo5o7JqgH2-rpiOE0s-34" value="路灯" style="whiteSpace=wrap;html=1;aspect=fixed;fontSize=18;fillColor=#dae8fc;strokeColor=#6c8ebf;" vertex="1" parent="1">
          <mxGeometry x="414" y="1048" width="80" height="80" as="geometry" />
        </mxCell>
        <mxCell id="0XLo5o7JqgH2-rpiOE0s-35" value="摄像头" style="endArrow=classic;html=1;rounded=0;fontSize=18;exitX=1;exitY=0.5;exitDx=0;exitDy=0;" edge="1" parent="1" source="0XLo5o7JqgH2-rpiOE0s-6" target="0XLo5o7JqgH2-rpiOE0s-18">
          <mxGeometry width="50" height="50" relative="1" as="geometry">
            <mxPoint x="777" y="370" as="sourcePoint" />
            <mxPoint x="827" y="320" as="targetPoint" />
          </mxGeometry>
        </mxCell>
        <mxCell id="0XLo5o7JqgH2-rpiOE0s-36" value="" style="shape=image;html=1;verticalAlign=top;verticalLabelPosition=bottom;labelBackgroundColor=#ffffff;imageAspect=0;aspect=fixed;image=https://cdn3.iconfinder.com/data/icons/google-material-design-icons/48/ic_directions_car_48px-128.png;fontSize=18;" vertex="1" parent="1">
          <mxGeometry x="390" y="860" width="128" height="128" as="geometry" />
        </mxCell>
        <mxCell id="0XLo5o7JqgH2-rpiOE0s-37" value="" style="shape=image;html=1;verticalAlign=top;verticalLabelPosition=bottom;labelBackgroundColor=#ffffff;imageAspect=0;aspect=fixed;image=https://cdn3.iconfinder.com/data/icons/google-material-design-icons/48/ic_directions_car_48px-128.png;fontSize=18;" vertex="1" parent="1">
          <mxGeometry x="760" y="1030" width="128" height="128" as="geometry" />
        </mxCell>
        <mxCell id="0XLo5o7JqgH2-rpiOE0s-38" value="" style="endArrow=classic;startArrow=classic;html=1;rounded=0;fontSize=18;exitX=0.5;exitY=0;exitDx=0;exitDy=0;" edge="1" parent="1" source="0XLo5o7JqgH2-rpiOE0s-34">
          <mxGeometry width="50" height="50" relative="1" as="geometry">
            <mxPoint x="440" y="1030" as="sourcePoint" />
            <mxPoint x="454" y="980" as="targetPoint" />
          </mxGeometry>
        </mxCell>
        <mxCell id="0XLo5o7JqgH2-rpiOE0s-41" value="" style="endArrow=classic;startArrow=classic;html=1;rounded=0;fontSize=18;" edge="1" parent="1" source="0XLo5o7JqgH2-rpiOE0s-37">
          <mxGeometry width="50" height="50" relative="1" as="geometry">
            <mxPoint x="552" y="980" as="sourcePoint" />
            <mxPoint x="492" y="1090" as="targetPoint" />
          </mxGeometry>
        </mxCell>
        <mxCell id="0XLo5o7JqgH2-rpiOE0s-42" value="右侧方有车辆，&lt;br&gt;注意行驶" style="ellipse;shape=cloud;whiteSpace=wrap;html=1;fontSize=18;" vertex="1" parent="1">
          <mxGeometry x="710" y="970" width="210" height="90" as="geometry" />
        </mxCell>
        <mxCell id="0XLo5o7JqgH2-rpiOE0s-43" value="左侧方有车辆，&lt;br&gt;注意行驶" style="ellipse;shape=cloud;whiteSpace=wrap;html=1;fontSize=18;" vertex="1" parent="1">
          <mxGeometry x="350" y="810" width="200" height="80" as="geometry" />
        </mxCell>
      </root>
    </mxGraphModel>
  </diagram>
</mxfile>
